<svg id="visual" viewBox="0 0 500 100" width="500" height="100" xmlns="http://www.w3.org/2000/svg" xmlns:xlink="http://www.w3.org/1999/xlink" version="1.1"><rect x="0" y="0" width="500" height="100" fill="#F1F1F1"></rect><path d="M0 14L36 11L71 3L107 10L143 17L179 18L214 10L250 3L286 5L321 14L357 2L393 19L429 12L464 3L500 13L500 101L464 101L429 101L393 101L357 101L321 101L286 101L250 101L214 101L179 101L143 101L107 101L71 101L36 101L0 101Z" fill="#f1f1f1"></path><path d="M0 21L36 28L71 33L107 22L143 30L179 28L214 27L250 33L286 31L321 31L357 36L393 24L429 31L464 18L500 23L500 101L464 101L429 101L393 101L357 101L321 101L286 101L250 101L214 101L179 101L143 101L107 101L71 101L36 101L0 101Z" fill="#d9def1"></path><path d="M0 32L36 38L71 40L107 38L143 43L179 35L214 40L250 48L286 38L321 39L357 36L393 40L429 43L464 53L500 41L500 101L464 101L429 101L393 101L357 101L321 101L286 101L250 101L214 101L179 101L143 101L107 101L71 101L36 101L0 101Z" fill="#bfcbf0"></path><path d="M0 64L36 47L71 50L107 60L143 55L179 65L214 58L250 53L286 58L321 45L357 50L393 53L429 59L464 48L500 54L500 101L464 101L429 101L393 101L357 101L321 101L286 101L250 101L214 101L179 101L143 101L107 101L71 101L36 101L0 101Z" fill="#a4b9f0"></path><path d="M0 77L36 67L71 70L107 63L143 79L179 80L214 74L250 80L286 73L321 65L357 59L393 63L429 79L464 70L500 75L500 101L464 101L429 101L393 101L357 101L321 101L286 101L250 101L214 101L179 101L143 101L107 101L71 101L36 101L0 101Z" fill="#87a7ee"></path><path d="M0 83L36 83L71 80L107 91L143 88L179 84L214 77L250 81L286 80L321 84L357 79L393 85L429 86L464 76L500 81L500 101L464 101L429 101L393 101L357 101L321 101L286 101L250 101L214 101L179 101L143 101L107 101L71 101L36 101L0 101Z" fill="#6495ed"></path></svg>