<svg id="visual" viewBox="0 0 500 100" width="500" height="100" xmlns="http://www.w3.org/2000/svg" xmlns:xlink="http://www.w3.org/1999/xlink" version="1.1"><rect x="0" y="0" width="500" height="100" fill="#F1F1F1"></rect><path d="M0 84L36 87L71 95L107 88L143 81L179 80L214 88L250 95L286 93L321 84L357 96L393 79L429 86L464 95L500 85L500 0L464 0L429 0L393 0L357 0L321 0L286 0L250 0L214 0L179 0L143 0L107 0L71 0L36 0L0 0Z" fill="#f1f1f1"></path><path d="M0 77L36 70L71 65L107 76L143 68L179 70L214 71L250 65L286 67L321 67L357 62L393 74L429 67L464 80L500 75L500 0L464 0L429 0L393 0L357 0L321 0L286 0L250 0L214 0L179 0L143 0L107 0L71 0L36 0L0 0Z" fill="#d9def1"></path><path d="M0 66L36 60L71 58L107 60L143 55L179 63L214 58L250 50L286 60L321 59L357 62L393 58L429 55L464 45L500 57L500 0L464 0L429 0L393 0L357 0L321 0L286 0L250 0L214 0L179 0L143 0L107 0L71 0L36 0L0 0Z" fill="#bfcbf0"></path><path d="M0 34L36 51L71 48L107 38L143 43L179 33L214 40L250 45L286 40L321 53L357 48L393 45L429 39L464 50L500 44L500 0L464 0L429 0L393 0L357 0L321 0L286 0L250 0L214 0L179 0L143 0L107 0L71 0L36 0L0 0Z" fill="#a4b9f0"></path><path d="M0 21L36 31L71 28L107 35L143 19L179 18L214 24L250 18L286 25L321 33L357 39L393 35L429 19L464 28L500 23L500 0L464 0L429 0L393 0L357 0L321 0L286 0L250 0L214 0L179 0L143 0L107 0L71 0L36 0L0 0Z" fill="#87a7ee"></path><path d="M0 15L36 15L71 18L107 7L143 10L179 14L214 21L250 17L286 18L321 14L357 19L393 13L429 12L464 22L500 17L500 0L464 0L429 0L393 0L357 0L321 0L286 0L250 0L214 0L179 0L143 0L107 0L71 0L36 0L0 0Z" fill="#6495ed"></path></svg>