<svg id="visual" viewBox="0 0 500 100" width="500" height="100" xmlns="http://www.w3.org/2000/svg" xmlns:xlink="http://www.w3.org/1999/xlink" version="1.1"><rect x="0" y="0" width="500" height="100" fill="#FFFFFF"></rect><path d="M0 69L71 70L143 59L214 66L286 65L357 58L429 64L500 73L500 101L429 101L357 101L286 101L214 101L143 101L71 101L0 101Z" fill="#cccccc"></path><path d="M0 66L71 76L143 66L214 72L286 73L357 74L429 76L500 73L500 101L429 101L357 101L286 101L214 101L143 101L71 101L0 101Z" fill="#969696"></path><path d="M0 82L71 73L143 82L214 82L286 79L357 81L429 80L500 79L500 101L429 101L357 101L286 101L214 101L143 101L71 101L0 101Z" fill="#636363"></path><path d="M0 86L71 89L143 85L214 86L286 82L357 86L429 80L500 82L500 101L429 101L357 101L286 101L214 101L143 101L71 101L0 101Z" fill="#353535"></path><path d="M0 87L71 88L143 92L214 90L286 94L357 87L429 95L500 89L500 101L429 101L357 101L286 101L214 101L143 101L71 101L0 101Z" fill="#070707"></path></svg>