<svg id="visual" viewBox="0 0 500 100" width="500" height="100" xmlns="http://www.w3.org/2000/svg" xmlns:xlink="http://www.w3.org/1999/xlink" version="1.1"><rect x="0" y="0" width="500" height="100" fill="#FFFFFF"></rect><defs><linearGradient id="grad1_0" x1="80%" y1="0%" x2="100%" y2="100%"><stop offset="-50%" stop-color="#6495ed" stop-opacity="1"></stop><stop offset="150%" stop-color="#6495ed" stop-opacity="1"></stop></linearGradient></defs><defs><linearGradient id="grad1_1" x1="80%" y1="0%" x2="100%" y2="100%"><stop offset="-50%" stop-color="#6495ed" stop-opacity="1"></stop><stop offset="150%" stop-color="#80a3f0" stop-opacity="1"></stop></linearGradient></defs><defs><linearGradient id="grad1_2" x1="80%" y1="0%" x2="100%" y2="100%"><stop offset="-50%" stop-color="#98b2f3" stop-opacity="1"></stop><stop offset="150%" stop-color="#80a3f0" stop-opacity="1"></stop></linearGradient></defs><defs><linearGradient id="grad1_3" x1="80%" y1="0%" x2="100%" y2="100%"><stop offset="-50%" stop-color="#98b2f3" stop-opacity="1"></stop><stop offset="150%" stop-color="#aec1f6" stop-opacity="1"></stop></linearGradient></defs><defs><linearGradient id="grad1_4" x1="80%" y1="0%" x2="100%" y2="100%"><stop offset="-50%" stop-color="#c3d0f8" stop-opacity="1"></stop><stop offset="150%" stop-color="#aec1f6" stop-opacity="1"></stop></linearGradient></defs><defs><linearGradient id="grad1_5" x1="80%" y1="0%" x2="100%" y2="100%"><stop offset="-50%" stop-color="#c3d0f8" stop-opacity="1"></stop><stop offset="150%" stop-color="#d8dffb" stop-opacity="1"></stop></linearGradient></defs><defs><linearGradient id="grad1_6" x1="80%" y1="0%" x2="100%" y2="100%"><stop offset="-50%" stop-color="#ebeffd" stop-opacity="1"></stop><stop offset="150%" stop-color="#d8dffb" stop-opacity="1"></stop></linearGradient></defs><defs><linearGradient id="grad1_7" x1="80%" y1="0%" x2="100%" y2="100%"><stop offset="-50%" stop-color="#ebeffd" stop-opacity="1"></stop><stop offset="150%" stop-color="#ffffff" stop-opacity="1"></stop></linearGradient></defs><defs><linearGradient id="grad2_0" x1="0%" y1="0%" x2="20%" y2="100%"><stop offset="-50%" stop-color="#6495ed" stop-opacity="1"></stop><stop offset="150%" stop-color="#6495ed" stop-opacity="1"></stop></linearGradient></defs><defs><linearGradient id="grad2_1" x1="0%" y1="0%" x2="20%" y2="100%"><stop offset="-50%" stop-color="#80a3f0" stop-opacity="1"></stop><stop offset="150%" stop-color="#6495ed" stop-opacity="1"></stop></linearGradient></defs><defs><linearGradient id="grad2_2" x1="0%" y1="0%" x2="20%" y2="100%"><stop offset="-50%" stop-color="#80a3f0" stop-opacity="1"></stop><stop offset="150%" stop-color="#98b2f3" stop-opacity="1"></stop></linearGradient></defs><defs><linearGradient id="grad2_3" x1="0%" y1="0%" x2="20%" y2="100%"><stop offset="-50%" stop-color="#aec1f6" stop-opacity="1"></stop><stop offset="150%" stop-color="#98b2f3" stop-opacity="1"></stop></linearGradient></defs><defs><linearGradient id="grad2_4" x1="0%" y1="0%" x2="20%" y2="100%"><stop offset="-50%" stop-color="#aec1f6" stop-opacity="1"></stop><stop offset="150%" stop-color="#c3d0f8" stop-opacity="1"></stop></linearGradient></defs><defs><linearGradient id="grad2_5" x1="0%" y1="0%" x2="20%" y2="100%"><stop offset="-50%" stop-color="#d8dffb" stop-opacity="1"></stop><stop offset="150%" stop-color="#c3d0f8" stop-opacity="1"></stop></linearGradient></defs><defs><linearGradient id="grad2_6" x1="0%" y1="0%" x2="20%" y2="100%"><stop offset="-50%" stop-color="#d8dffb" stop-opacity="1"></stop><stop offset="150%" stop-color="#ebeffd" stop-opacity="1"></stop></linearGradient></defs><defs><linearGradient id="grad2_7" x1="0%" y1="0%" x2="20%" y2="100%"><stop offset="-50%" stop-color="#ffffff" stop-opacity="1"></stop><stop offset="150%" stop-color="#ebeffd" stop-opacity="1"></stop></linearGradient></defs><g transform="translate(500, 0)"><path d="M0 70C-15.6 70.1 -31.2 70.2 -35 60.6C-38.8 51 -30.8 31.7 -34.6 20C-38.5 8.3 -54.3 4.1 -70 0L0 0Z" fill="#f5f7fe"></path><path d="M0 61.3C-13.7 61.3 -27.3 61.4 -30.6 53C-33.9 44.6 -26.9 27.8 -30.3 17.5C-33.7 7.2 -47.5 3.6 -61.2 0L0 0Z" fill="#e2e7fc"></path><path d="M0 52.5C-11.7 52.6 -23.4 52.7 -26.2 45.5C-29.1 38.3 -23.1 23.8 -26 15C-28.9 6.2 -40.7 3.1 -52.5 0L0 0Z" fill="#cdd8f9"></path><path d="M0 43.8C-9.8 43.8 -19.5 43.9 -21.9 37.9C-24.2 31.9 -19.2 19.8 -21.7 12.5C-24.1 5.2 -33.9 2.6 -43.7 0L0 0Z" fill="#b9c8f7"></path><path d="M0 35C-7.8 35.1 -15.6 35.1 -17.5 30.3C-19.4 25.5 -15.4 15.9 -17.3 10C-19.3 4.1 -27.1 2.1 -35 0L0 0Z" fill="#a3b9f4"></path><path d="M0 26.3C-5.9 26.3 -11.7 26.3 -13.1 22.7C-14.5 19.1 -11.5 11.9 -13 7.5C-14.4 3.1 -20.3 1.6 -26.2 0L0 0Z" fill="#8caaf1"></path><path d="M0 17.5C-3.9 17.5 -7.8 17.6 -8.7 15.2C-9.7 12.8 -7.7 7.9 -8.7 5C-9.6 2.1 -13.6 1 -17.5 0L0 0Z" fill="#729cee"></path><path d="M0 8.8C-2 8.8 -3.9 8.8 -4.4 7.6C-4.8 6.4 -3.8 4 -4.3 2.5C-4.8 1 -6.8 0.5 -8.7 0L0 0Z" fill="#6495ed"></path></g><g transform="translate(0, 100)"><path d="M0 -70C12.5 -68.3 25 -66.6 35 -60.6C45 -54.6 52.6 -44.3 58 -33.5C63.4 -22.7 66.7 -11.3 70 0L0 0Z" fill="#f5f7fe"></path><path d="M0 -61.2C10.9 -59.8 21.9 -58.3 30.6 -53C39.4 -47.8 46 -38.8 50.8 -29.3C55.5 -19.8 58.4 -9.9 61.3 0L0 0Z" fill="#e2e7fc"></path><path d="M0 -52.5C9.4 -51.2 18.7 -50 26.2 -45.5C33.8 -41 39.4 -33.2 43.5 -25.1C47.6 -17 50 -8.5 52.5 0L0 0Z" fill="#cdd8f9"></path><path d="M0 -43.7C7.8 -42.7 15.6 -41.6 21.9 -37.9C28.1 -34.1 32.9 -27.7 36.3 -20.9C39.7 -14.2 41.7 -7.1 43.8 0L0 0Z" fill="#b9c8f7"></path><path d="M0 -35C6.2 -34.2 12.5 -33.3 17.5 -30.3C22.5 -27.3 26.3 -22.2 29 -16.8C31.7 -11.3 33.4 -5.7 35 0L0 0Z" fill="#a3b9f4"></path><path d="M0 -26.2C4.7 -25.6 9.4 -25 13.1 -22.7C16.9 -20.5 19.7 -16.6 21.8 -12.6C23.8 -8.5 25 -4.3 26.3 0L0 0Z" fill="#8caaf1"></path><path d="M0 -17.5C3.1 -17.1 6.2 -16.7 8.7 -15.2C11.3 -13.7 13.1 -11.1 14.5 -8.4C15.9 -5.7 16.7 -2.8 17.5 0L0 0Z" fill="#729cee"></path><path d="M0 -8.7C1.6 -8.5 3.1 -8.3 4.4 -7.6C5.6 -6.8 6.6 -5.5 7.3 -4.2C7.9 -2.8 8.3 -1.4 8.8 0L0 0Z" fill="#6495ed"></path></g></svg>