<svg id="visual" viewBox="0 0 500 100" width="500" height="100" xmlns="http://www.w3.org/2000/svg" xmlns:xlink="http://www.w3.org/1999/xlink" version="1.1"><rect x="0" y="0" width="500" height="100" fill="#FFFFFF"></rect><path d="M0 29L71 28L143 39L214 32L286 33L357 40L429 34L500 25L500 0L429 0L357 0L286 0L214 0L143 0L71 0L0 0Z" fill="#cccccc"></path><path d="M0 32L71 22L143 32L214 26L286 25L357 24L429 22L500 25L500 0L429 0L357 0L286 0L214 0L143 0L71 0L0 0Z" fill="#969696"></path><path d="M0 16L71 25L143 16L214 16L286 19L357 17L429 18L500 19L500 0L429 0L357 0L286 0L214 0L143 0L71 0L0 0Z" fill="#636363"></path><path d="M0 12L71 9L143 13L214 12L286 16L357 12L429 18L500 16L500 0L429 0L357 0L286 0L214 0L143 0L71 0L0 0Z" fill="#353535"></path><path d="M0 11L71 10L143 6L214 8L286 4L357 11L429 3L500 9L500 0L429 0L357 0L286 0L214 0L143 0L71 0L0 0Z" fill="#070707"></path></svg>