<svg id="visual" viewBox="0 0 500 100" width="500" height="100" xmlns="http://www.w3.org/2000/svg" xmlns:xlink="http://www.w3.org/1999/xlink" version="1.1"><g stroke-width="1" stroke-linejoin="bevel"><path d="M251.2 100L286.8 100L309.8 46Z" fill="#f1f4fe" stroke="#FFFFFF"></path><path d="M286.8 100L300.3 100L309.8 46Z" fill="#8aa9f1" stroke="#FFFFFF"></path><path d="M309.8 46L259.2 0L251.2 100Z" fill="#789fef" stroke="#FFFFFF"></path><path d="M269.8 0L259.2 0L309.8 46Z" fill="#e4e9fc" stroke="#FFFFFF"></path><path d="M300.3 100L337.3 59L309.8 46Z" fill="#8aa9f1" stroke="#FFFFFF"></path><path d="M309.8 46L340.3 0L269.8 0Z" fill="#8aa9f1" stroke="#FFFFFF"></path><path d="M259.2 0L184.2 77L251.2 100Z" fill="#8aa9f1" stroke="#FFFFFF"></path><path d="M259.2 0L198.7 0L184.2 77Z" fill="#d6defa" stroke="#FFFFFF"></path><path d="M337.3 59L340.3 0L309.8 46Z" fill="#f1f4fe" stroke="#FFFFFF"></path><path d="M337.3 59L363.9 9L340.3 0Z" fill="#b9c8f7" stroke="#FFFFFF"></path><path d="M413.4 0L373.9 0L363.9 9Z" fill="#6495ed" stroke="#FFFFFF"></path><path d="M363.9 9L373.9 0L340.3 0Z" fill="#d6defa" stroke="#FFFFFF"></path><path d="M198.7 0L141.7 50L184.2 77Z" fill="#ffffff" stroke="#FFFFFF"></path><path d="M300.3 100L402.9 100L337.3 59Z" fill="#f1f4fe" stroke="#FFFFFF"></path><path d="M337.3 59L402.9 100L363.9 9Z" fill="#6495ed" stroke="#FFFFFF"></path><path d="M141.7 50L125.7 100L184.2 77Z" fill="#b9c8f7" stroke="#FFFFFF"></path><path d="M184.2 77L125.7 100L251.2 100Z" fill="#b9c8f7" stroke="#FFFFFF"></path><path d="M88.1 0L116.1 52L141.7 50Z" fill="#6495ed" stroke="#FFFFFF"></path><path d="M141.7 50L116.1 52L125.7 100Z" fill="#c8d3f9" stroke="#FFFFFF"></path><path d="M402.9 100L413.4 0L363.9 9Z" fill="#f1f4fe" stroke="#FFFFFF"></path><path d="M402.9 100L460.4 35L413.4 0Z" fill="#c8d3f9" stroke="#FFFFFF"></path><path d="M88.1 0L81.6 46L116.1 52Z" fill="#d6defa" stroke="#FFFFFF"></path><path d="M116.1 52L84.1 100L125.7 100Z" fill="#789fef" stroke="#FFFFFF"></path><path d="M81.6 46L84.1 100L116.1 52Z" fill="#ffffff" stroke="#FFFFFF"></path><path d="M198.7 0L88.1 0L141.7 50Z" fill="#e4e9fc" stroke="#FFFFFF"></path><path d="M449.4 100L460.4 35L402.9 100Z" fill="#c8d3f9" stroke="#FFFFFF"></path><path d="M88.1 0L73.6 0L81.6 46Z" fill="#c8d3f9" stroke="#FFFFFF"></path><path d="M81.6 46L18.6 100L84.1 100Z" fill="#d6defa" stroke="#FFFFFF"></path><path d="M449.4 100L500 100L460.4 35Z" fill="#8aa9f1" stroke="#FFFFFF"></path><path d="M500 100L500 14L460.4 35Z" fill="#6495ed" stroke="#FFFFFF"></path><path d="M460.4 35L500 0L413.4 0Z" fill="#8aa9f1" stroke="#FFFFFF"></path><path d="M500 14L500 0L460.4 35Z" fill="#b9c8f7" stroke="#FFFFFF"></path><path d="M0 30L18.6 100L81.6 46Z" fill="#f1f4fe" stroke="#FFFFFF"></path><path d="M73.6 0L0 30L81.6 46Z" fill="#6495ed" stroke="#FFFFFF"></path><path d="M0 30L0 100L18.6 100Z" fill="#6495ed" stroke="#FFFFFF"></path><path d="M73.6 0L0 0L0 30Z" fill="#789fef" stroke="#FFFFFF"></path></g></svg>