<svg id="visual" viewBox="0 0 500 100" width="500" height="100" xmlns="http://www.w3.org/2000/svg" xmlns:xlink="http://www.w3.org/1999/xlink" version="1.1"><rect x="0" y="0" width="500" height="100" fill="#FFFFFF"></rect><path d="M0 29L36 29L71 29L107 29L143 29L179 29L214 29L250 29L286 29L321 29L357 29L393 29L429 29L464 29L500 29L500 0L464 0L429 0L393 0L357 0L321 0L286 0L250 0L214 0L179 0L143 0L107 0L71 0L36 0L0 0Z" fill="#ffffff"></path><path d="M0 25L36 25L71 25L107 25L143 25L179 25L214 25L250 25L286 25L321 25L357 25L393 25L429 25L464 25L500 25L500 0L464 0L429 0L393 0L357 0L321 0L286 0L250 0L214 0L179 0L143 0L107 0L71 0L36 0L0 0Z" fill="#dddddd"></path><path d="M0 20L36 20L71 20L107 20L143 20L179 20L214 20L250 20L286 20L321 20L357 20L393 20L429 20L464 20L500 20L500 0L464 0L429 0L393 0L357 0L321 0L286 0L250 0L214 0L179 0L143 0L107 0L71 0L36 0L0 0Z" fill="#bdbdbd"></path><path d="M0 15L36 15L71 15L107 15L143 15L179 15L214 15L250 15L286 15L321 15L357 15L393 15L429 15L464 15L500 15L500 0L464 0L429 0L393 0L357 0L321 0L286 0L250 0L214 0L179 0L143 0L107 0L71 0L36 0L0 0Z" fill="#9d9d9d"></path><path d="M0 11L36 11L71 11L107 11L143 11L179 11L214 11L250 11L286 11L321 11L357 11L393 11L429 11L464 11L500 11L500 0L464 0L429 0L393 0L357 0L321 0L286 0L250 0L214 0L179 0L143 0L107 0L71 0L36 0L0 0Z" fill="#7e7e7e"></path><path d="M0 6L36 6L71 6L107 6L143 6L179 6L214 6L250 6L286 6L321 6L357 6L393 6L429 6L464 6L500 6L500 0L464 0L429 0L393 0L357 0L321 0L286 0L250 0L214 0L179 0L143 0L107 0L71 0L36 0L0 0Z" fill="#616161"></path></svg>