<svg id="visual" viewBox="0 0 500 100" width="500" height="100" xmlns="http://www.w3.org/2000/svg" xmlns:xlink="http://www.w3.org/1999/xlink" version="1.1"><rect x="0" y="0" width="500" height="100" fill="#FFFFFF"></rect><path d="M0 69L36 69L71 69L107 69L143 69L179 69L214 69L250 69L286 69L321 69L357 69L393 69L429 69L464 69L500 69L500 101L464 101L429 101L393 101L357 101L321 101L286 101L250 101L214 101L179 101L143 101L107 101L71 101L36 101L0 101Z" fill="#ffffff"></path><path d="M0 73L36 73L71 73L107 73L143 73L179 73L214 73L250 73L286 73L321 73L357 73L393 73L429 73L464 73L500 73L500 101L464 101L429 101L393 101L357 101L321 101L286 101L250 101L214 101L179 101L143 101L107 101L71 101L36 101L0 101Z" fill="#dddddd"></path><path d="M0 78L36 78L71 78L107 78L143 78L179 78L214 78L250 78L286 78L321 78L357 78L393 78L429 78L464 78L500 78L500 101L464 101L429 101L393 101L357 101L321 101L286 101L250 101L214 101L179 101L143 101L107 101L71 101L36 101L0 101Z" fill="#bdbdbd"></path><path d="M0 83L36 83L71 83L107 83L143 83L179 83L214 83L250 83L286 83L321 83L357 83L393 83L429 83L464 83L500 83L500 101L464 101L429 101L393 101L357 101L321 101L286 101L250 101L214 101L179 101L143 101L107 101L71 101L36 101L0 101Z" fill="#9d9d9d"></path><path d="M0 87L36 87L71 87L107 87L143 87L179 87L214 87L250 87L286 87L321 87L357 87L393 87L429 87L464 87L500 87L500 101L464 101L429 101L393 101L357 101L321 101L286 101L250 101L214 101L179 101L143 101L107 101L71 101L36 101L0 101Z" fill="#7e7e7e"></path><path d="M0 92L36 92L71 92L107 92L143 92L179 92L214 92L250 92L286 92L321 92L357 92L393 92L429 92L464 92L500 92L500 101L464 101L429 101L393 101L357 101L321 101L286 101L250 101L214 101L179 101L143 101L107 101L71 101L36 101L0 101Z" fill="#616161"></path></svg>