<svg id="visual" viewBox="0 0 500 100" width="500" height="100" xmlns="http://www.w3.org/2000/svg" xmlns:xlink="http://www.w3.org/1999/xlink" version="1.1"><rect x="0" y="0" width="500" height="100" fill="#BDCBCC"></rect><path d="M0 53L36 51L71 54L107 54L143 51L179 57L214 51L250 57L286 54L321 58L357 62L393 55L429 52L464 54L500 56L500 101L464 101L429 101L393 101L357 101L321 101L286 101L250 101L214 101L179 101L143 101L107 101L71 101L36 101L0 101Z" fill="#bdcbcc"></path><path d="M0 59L36 60L71 59L107 58L143 60L179 63L214 63L250 60L286 66L321 58L357 63L393 60L429 58L464 69L500 65L500 101L464 101L429 101L393 101L357 101L321 101L286 101L250 101L214 101L179 101L143 101L107 101L71 101L36 101L0 101Z" fill="#9dc4ce"></path><path d="M0 74L36 68L71 70L107 68L143 65L179 75L214 66L250 70L286 71L321 65L357 66L393 69L429 71L464 68L500 75L500 101L464 101L429 101L393 101L357 101L321 101L286 101L250 101L214 101L179 101L143 101L107 101L71 101L36 101L0 101Z" fill="#7fbcd6"></path><path d="M0 72L36 79L71 74L107 74L143 76L179 77L214 77L250 81L286 83L321 81L357 81L393 73L429 78L464 81L500 80L500 101L464 101L429 101L393 101L357 101L321 101L286 101L250 101L214 101L179 101L143 101L107 101L71 101L36 101L0 101Z" fill="#66b2e0"></path><path d="M0 84L36 90L71 80L107 90L143 81L179 82L214 87L250 88L286 86L321 85L357 89L393 88L429 85L464 85L500 81L500 101L464 101L429 101L393 101L357 101L321 101L286 101L250 101L214 101L179 101L143 101L107 101L71 101L36 101L0 101Z" fill="#5aa5e9"></path><path d="M0 90L36 90L71 87L107 86L143 92L179 94L214 96L250 92L286 88L321 89L357 94L393 88L429 92L464 92L500 91L500 101L464 101L429 101L393 101L357 101L321 101L286 101L250 101L214 101L179 101L143 101L107 101L71 101L36 101L0 101Z" fill="#6495ed"></path></svg>