<svg id="visual" viewBox="0 0 500 100" width="500" height="100" xmlns="http://www.w3.org/2000/svg" xmlns:xlink="http://www.w3.org/1999/xlink" version="1.1"><rect x="0" y="0" width="500" height="100" fill="#BDCBCC"></rect><path d="M0 45L36 47L71 44L107 44L143 47L179 41L214 47L250 41L286 44L321 40L357 36L393 43L429 46L464 44L500 42L500 0L464 0L429 0L393 0L357 0L321 0L286 0L250 0L214 0L179 0L143 0L107 0L71 0L36 0L0 0Z" fill="#bdcbcc"></path><path d="M0 39L36 38L71 39L107 40L143 38L179 35L214 35L250 38L286 32L321 40L357 35L393 38L429 40L464 29L500 33L500 0L464 0L429 0L393 0L357 0L321 0L286 0L250 0L214 0L179 0L143 0L107 0L71 0L36 0L0 0Z" fill="#9dc4ce"></path><path d="M0 24L36 30L71 28L107 30L143 33L179 23L214 32L250 28L286 27L321 33L357 32L393 29L429 27L464 30L500 23L500 0L464 0L429 0L393 0L357 0L321 0L286 0L250 0L214 0L179 0L143 0L107 0L71 0L36 0L0 0Z" fill="#7fbcd6"></path><path d="M0 26L36 19L71 24L107 24L143 22L179 21L214 21L250 17L286 15L321 17L357 17L393 25L429 20L464 17L500 18L500 0L464 0L429 0L393 0L357 0L321 0L286 0L250 0L214 0L179 0L143 0L107 0L71 0L36 0L0 0Z" fill="#66b2e0"></path><path d="M0 14L36 8L71 18L107 8L143 17L179 16L214 11L250 10L286 12L321 13L357 9L393 10L429 13L464 13L500 17L500 0L464 0L429 0L393 0L357 0L321 0L286 0L250 0L214 0L179 0L143 0L107 0L71 0L36 0L0 0Z" fill="#5aa5e9"></path><path d="M0 8L36 8L71 11L107 12L143 6L179 4L214 2L250 6L286 10L321 9L357 4L393 10L429 6L464 6L500 7L500 0L464 0L429 0L393 0L357 0L321 0L286 0L250 0L214 0L179 0L143 0L107 0L71 0L36 0L0 0Z" fill="#6495ed"></path></svg>